<svg width="214" height="62" viewBox="0 0 214 62" fill="none" xmlns="http://www.w3.org/2000/svg">
<path d="M213.6 55.2C213.6 58.6 210.9 61.3 207.5 61.3H6.2C2.8 61.3 0 58.6 0 55.2V6.2C0 2.8 2.8 0 6.2 0H207.4C210.8 0 213.5 2.8 213.5 6.2V55.2H213.6Z" fill="#414141"/>
<path d="M46.9003 30.2999C46.9003 27.0999 48.6003 24.1999 51.3003 22.4999C49.6003 20.0999 46.8003 18.5999 43.8003 18.3999C40.6003 18.0999 37.6003 20.2999 36.0003 20.2999C34.4003 20.2999 31.9003 18.3999 29.2003 18.4999C25.7003 18.5999 22.5003 20.4999 20.8003 23.5999C17.2003 29.8999 19.9003 39.1999 23.3003 44.2999C25.1003 46.7999 27.0003 49.5999 29.8003 49.4999C32.5003 49.3999 33.4003 47.7999 36.5003 47.7999C39.6003 47.7999 40.5003 49.4999 43.3003 49.3999C46.0003 49.2999 47.9003 46.8999 49.5003 44.3999C50.8003 42.5999 51.7003 40.5999 52.4003 38.4999C49.1003 37.0999 46.9003 33.8999 46.9003 30.2999Z" fill="#DFDFDF"/>
<path d="M41.7998 15.1C43.2998 13.3 44.0998 10.9 43.8998 8.5C41.5998 8.8 39.3998 9.9 37.8998 11.6C36.3998 13.3 35.5998 15.6 35.7998 17.9C38.0998 18 40.2998 16.9 41.7998 15.1Z" fill="#DFDFDF"/>
<path d="M84.5996 49.1H80.9996L78.9996 42.9001H72.0996L70.1996 49.1H66.5996L73.4996 27.8H77.7996L84.5996 49.1ZM78.3996 40.2001L76.5996 34.6C76.3996 34 76.0996 32.7 75.4996 30.6H75.3996C75.1996 31.5 74.7996 32.9 74.3996 34.6L72.5996 40.2001H78.3996Z" fill="#DFDFDF"/>
<path d="M102.3 41.1999C102.4 43.4999 101.7 45.6999 100.2 47.3999C99 48.6999 97.3 49.4999 95.5 49.3999C93.7 49.4999 92.1 48.6999 91.1 47.1999V55.2999H87.6V38.7999C87.6 37.0999 87.6 35.4999 87.5 33.6999H90.5L90.7 36.1999C92.5 33.3999 96.3 32.5999 99.1 34.4999C99.6 34.7999 100 35.1999 100.4 35.5999C101.7 37.1999 102.4 39.1999 102.3 41.1999ZM98.8 41.3999C98.9 40.0999 98.5 38.7999 97.8 37.6999C97.1 36.6999 96 36.0999 94.8 36.1999C94 36.1999 93.1 36.4999 92.5 36.9999C91.8 37.5999 91.3 38.2999 91.2 39.1999C91.1 39.4999 91 39.8999 91 40.1999V42.7999C91 43.7999 91.3 44.8999 92 45.5999C92.7 46.3999 93.7 46.7999 94.7 46.7999C95.9 46.7999 97 46.2999 97.7 45.2999C98.5 44.0999 98.9 42.6999 98.8 41.3999Z" fill="#DFDFDF"/>
<path d="M120 41.1999C120.1 43.4999 119.4 45.6999 117.9 47.3999C116.7 48.6999 115 49.4999 113.2 49.3999C111.5 49.4999 109.8 48.6999 108.9 47.1999H108.8V55.2999H105.4V38.7999C105.4 37.0999 105.4 35.4999 105.3 33.6999H108.3L108.5 36.1999C110.4 33.3999 114.1 32.5999 117 34.4999C117.5 34.7999 117.9 35.1999 118.3 35.5999C119.4 37.1999 120.1 39.1999 120 41.1999ZM116.5 41.3999C116.6 40.0999 116.2 38.7999 115.5 37.6999C114.8 36.6999 113.7 36.0999 112.5 36.1999C111.7 36.1999 110.8 36.4999 110.2 36.9999C109.5 37.5999 109 38.2999 108.9 39.1999C108.8 39.4999 108.8 39.8999 108.7 40.1999V42.7999C108.7 43.7999 109 44.8999 109.7 45.5999C110.4 46.3999 111.4 46.7999 112.4 46.7999C113.6 46.8999 114.7 46.2999 115.4 45.2999C116.2 44.0999 116.6 42.6999 116.5 41.3999Z" fill="#DFDFDF"/>
<path d="M139.8 43.0999C139.9 44.7999 139.2 46.3999 137.9 47.4999C136.3 48.7999 134.2 49.4999 132.1 49.3999C130.2 49.4999 128.2 48.9999 126.6 48.0999L127.4 45.2999C128.9 46.1999 130.6 46.6999 132.4 46.6999C133.5 46.7999 134.5 46.4999 135.4 45.7999C136.1 45.1999 136.5 44.3999 136.5 43.4999C136.5 42.6999 136.2 41.8999 135.6 41.2999C134.7 40.5999 133.7 39.9999 132.7 39.6999C129 38.2999 127.1 36.1999 127.1 33.5999C127.1 31.8999 127.8 30.2999 129.1 29.2999C130.6 28.0999 132.4 27.4999 134.3 27.5999C136 27.4999 137.6 27.8999 139.1 28.5999L138.3 31.3999C137 30.6999 135.6 30.3999 134.2 30.3999C133.2 30.2999 132.2 30.6999 131.4 31.2999C130.9 31.7999 130.5 32.4999 130.6 33.1999C130.6 33.9999 130.9 34.7999 131.6 35.2999C132.5 35.9999 133.6 36.5999 134.7 36.8999C136.2 37.3999 137.6 38.2999 138.8 39.4999C139.4 40.4999 139.9 41.7999 139.8 43.0999Z" fill="#DFDFDF"/>
<path d="M151.1 36.2999H147.4V43.7999C147.4 45.6999 148.1 46.5999 149.4 46.5999C149.9 46.5999 150.4 46.5999 150.9 46.3999L151 48.9999C150.1 49.2999 149.2 49.3999 148.3 49.3999C147.1 49.4999 146 48.9999 145.1 48.1999C144.2 46.9999 143.8 45.4999 144 43.9999V36.2999H141.7V33.6999H144V30.8999L147.4 29.8999V33.6999H151.1V36.2999Z" fill="#DFDFDF"/>
<path d="M168.1 41.3001C168.2 43.4001 167.5 45.5001 166.1 47.1001C164.7 48.7001 162.6 49.5001 160.5 49.4001C158.5 49.5001 156.5 48.7001 155.1 47.2001C153.7 45.6001 153 43.6001 153.1 41.5001C153 39.4001 153.8 37.3001 155.2 35.6001C156.6 34.1001 158.7 33.2001 160.8 33.3001C162.9 33.2001 164.8 34.0001 166.2 35.6001C167.5 37.2001 168.2 39.2001 168.1 41.3001ZM164.6 41.4001C164.6 40.1001 164.3 38.9001 163.7 37.7001C163.1 36.6001 161.9 35.8001 160.6 35.9001C159.3 35.9001 158.1 36.6001 157.5 37.7001C156.9 38.8001 156.5 40.1001 156.6 41.4001C156.6 42.7001 156.9 43.9001 157.5 45.1001C158.4 46.8001 160.5 47.5001 162.2 46.6001C162.9 46.3001 163.4 45.7001 163.7 45.1001C164.3 44.0001 164.6 42.7001 164.6 41.4001Z" fill="#DFDFDF"/>
<path d="M179.3 36.6999C178.9 36.5999 178.6 36.5999 178.2 36.5999C177.1 36.4999 176 37.0999 175.4 37.9999C174.8 38.8999 174.5 39.9999 174.5 40.9999V49.0999H171.1V38.5999C171.1 36.7999 171.1 35.1999 171 33.7999H174.1L174.2 36.6999H174.3C174.6 35.6999 175.2 34.8999 176 34.1999C176.7 33.6999 177.6 33.3999 178.5 33.3999C178.8 33.3999 179.1 33.3999 179.4 33.4999L179.3 36.6999Z" fill="#DFDFDF"/>
<path d="M194.5 40.7C194.5 41.2 194.5 41.7 194.4 42.2H184.1C184.1 43.5 184.6 44.8 185.6 45.7C186.6 46.4 187.7 46.8 189 46.8C190.4 46.8 191.8 46.6 193.2 46.1L193.7 48.5C192.1 49.2 190.3 49.5 188.5 49.4C186.4 49.5 184.4 48.7 182.9 47.2C181.5 45.7 180.8 43.6 180.9 41.5C180.8 39.4 181.5 37.4 182.8 35.8C184.1 34.2 186.1 33.2 188.2 33.3C190.2 33.2 192.1 34.1 193.2 35.8C194.1 37.3 194.6 39 194.5 40.7ZM191.3 39.8C191.3 38.9 191.1 38 190.6 37.2C190 36.3 189 35.7 187.9 35.8C186.8 35.8 185.8 36.3 185.2 37.2C184.6 38 184.3 38.9 184.2 39.9H191.3V39.8Z" fill="#DFDFDF"/>
<path d="M77.2996 14.6C77.3996 16.2 76.7996 17.8 75.5996 18.9C74.2996 19.9 72.6996 20.3 71.0996 20.2C70.2996 20.2 69.3996 20.2 68.5996 20.1V9.79996C69.5996 9.59996 70.4996 9.59996 71.4996 9.59996C72.9996 9.49996 74.4996 9.89996 75.6996 10.8C76.6996 11.8 77.2996 13.2 77.2996 14.6ZM75.4996 14.6C75.5996 13.6 75.1996 12.6 74.4996 11.8C73.6996 11.1 72.6996 10.7 71.6996 10.8C71.1996 10.8 70.7996 10.8 70.2996 10.9V18.7C70.6996 18.7 71.0996 18.7 71.3996 18.7C72.4996 18.8 73.5996 18.4 74.3996 17.6C75.1996 16.9 75.5996 15.8 75.4996 14.6Z" fill="#DFDFDF"/>
<path d="M86.7002 16.3001C86.7002 17.4001 86.4002 18.4001 85.7002 19.2001C85.0002 20.0001 84.0002 20.4001 82.9002 20.3001C81.9002 20.3001 80.9002 19.9001 80.2002 19.2001C79.5002 18.4001 79.2002 17.4001 79.2002 16.4001C79.2002 15.3001 79.5002 14.3001 80.2002 13.5001C80.9002 12.7001 81.9002 12.3001 82.9002 12.4001C83.9002 12.4001 84.9002 12.8001 85.6002 13.5001C86.4002 14.3001 86.7002 15.3001 86.7002 16.3001ZM84.9002 16.3001C84.9002 15.7001 84.8002 15.0001 84.5002 14.5001C84.0002 13.7001 83.0002 13.4001 82.1002 13.8001C81.8002 14.0001 81.6002 14.2001 81.4002 14.5001C81.1002 15.1001 80.9002 15.7001 80.9002 16.3001C80.9002 16.9001 81.0002 17.6001 81.4002 18.1001C81.7002 18.7001 82.3002 19.0001 82.9002 19.0001C83.5002 19.0001 84.1002 18.7001 84.4002 18.1001C84.8002 17.6001 84.9002 17.0001 84.9002 16.3001Z" fill="#DFDFDF"/>
<path d="M99.2998 12.6001L96.8998 20.2001H95.3998L94.3998 16.9001C94.1998 16.1001 93.9998 15.3001 93.7998 14.4001C93.6998 15.2001 93.4998 16.1001 93.1998 16.9001L92.1998 20.2001H90.5998L88.2998 12.6001H89.9998L90.8998 16.2001C91.0998 17.1001 91.2998 17.9001 91.3998 18.7001C91.5998 17.9001 91.7998 17.0001 92.0998 16.2001L93.1998 12.6001H94.5998L95.5998 16.2001C95.7998 17.1001 95.9998 17.9001 96.1998 18.7001C96.2998 17.9001 96.4998 17.0001 96.6998 16.2001L97.5998 12.7001L99.2998 12.6001Z" fill="#DFDFDF"/>
<path d="M108 20.1H106.3V15.8C106.3 14.5 105.8 13.8 104.8 13.8C104.3 13.8 103.9 14 103.6 14.3C103.3 14.7 103.1 15.1 103.1 15.6V20.1H101.5V14.7C101.5 14 101.5 13.3 101.5 12.5H103L103.1 13.7C103.3 13.3 103.6 13 104 12.8C104.5 12.5 105 12.3 105.5 12.3C106.2 12.3 106.8 12.5 107.3 13C107.9 13.7 108.2 14.6 108.2 15.5V20.1H108Z" fill="#DFDFDF"/>
<path d="M112.6 20.1001H110.9V9.1001H112.6V20.1001Z" fill="#DFDFDF"/>
<path d="M122.5 16.3001C122.5 17.3001 122.2 18.4001 121.5 19.2001C120.8 20.0001 119.8 20.4001 118.7 20.3001C117.7 20.3001 116.7 19.9001 116.1 19.2001C115.4 18.4001 115.1 17.4001 115.1 16.4001C115.1 15.3001 115.4 14.3001 116.1 13.5001C116.8 12.7001 117.8 12.3001 118.8 12.4001C119.8 12.4001 120.8 12.8001 121.5 13.5001C122.2 14.3001 122.6 15.3001 122.5 16.3001ZM120.8 16.3001C120.8 15.7001 120.7 15.0001 120.4 14.5001C119.9 13.7001 118.9 13.4001 118 13.8001C117.7 14.0001 117.5 14.2001 117.3 14.5001C117 15.1001 116.9 15.7001 116.9 16.3001C116.9 16.9001 117 17.6001 117.4 18.1001C117.7 18.7001 118.3 19.0001 118.9 19.0001C119.5 19.0001 120.1 18.7001 120.4 18.1001C120.7 17.6001 120.8 17.0001 120.8 16.3001Z" fill="#DFDFDF"/>
<path d="M130.7 20.1001H129.2L129.1 19.2001C128.6 19.9001 127.8 20.3001 126.9 20.2001C126.3 20.2001 125.6 20.0001 125.2 19.5001C124.8 19.1001 124.6 18.5001 124.6 18.0001C124.6 17.1001 125 16.3001 125.8 15.9001C126.8 15.4001 127.9 15.1001 129.1 15.2001V15.1001C129.1 14.1001 128.6 13.6001 127.5 13.6001C126.8 13.6001 126.1 13.8001 125.5 14.2001L125.2 13.1001C126 12.6001 126.9 12.4001 127.8 12.5001C129.8 12.5001 130.8 13.5001 130.8 15.6001V18.4001C130.6 18.9001 130.6 19.5001 130.7 20.1001ZM128.9 17.5001V16.3001C127 16.3001 126.1 16.8001 126.1 17.8001C126.1 18.1001 126.2 18.5001 126.4 18.7001C126.6 18.9001 126.9 19.0001 127.2 19.0001C127.6 19.0001 127.9 18.9001 128.2 18.7001C128.5 18.5001 128.7 18.2001 128.8 17.8001C128.9 17.7001 128.9 17.6001 128.9 17.5001Z" fill="#DFDFDF"/>
<path d="M140.2 20.1001H138.7L138.6 18.9001C138.1 19.8001 137.1 20.4001 136.1 20.3001C135.2 20.3001 134.4 19.9001 133.8 19.2001C133.2 18.4001 132.9 17.4001 132.9 16.4001C132.9 15.3001 133.2 14.3001 133.9 13.4001C134.5 12.7001 135.3 12.3001 136.2 12.3001C137 12.2001 137.9 12.6001 138.3 13.3001V9.1001H140V18.1001C140.2 18.8001 140.2 19.5001 140.2 20.1001ZM138.5 16.9001V15.7001C138.5 15.5001 138.5 15.3001 138.5 15.2001C138.4 14.8001 138.2 14.4001 137.9 14.2001C137.6 13.9001 137.2 13.8001 136.8 13.8001C136.2 13.8001 135.7 14.1001 135.3 14.5001C134.9 15.1001 134.7 15.7001 134.8 16.4001C134.8 17.0001 135 17.7001 135.3 18.2001C135.6 18.7001 136.2 19.0001 136.8 18.9001C137.3 18.9001 137.8 18.7001 138.1 18.3001C138.3 17.9001 138.5 17.4001 138.5 16.9001Z" fill="#DFDFDF"/>
<path d="M154.6 16.3001C154.6 17.3001 154.3 18.4001 153.6 19.2001C152.9 20.0001 151.9 20.4001 150.8 20.3001C149.8 20.3001 148.8 19.9001 148.1 19.2001C147.4 18.4001 147.1 17.4001 147.1 16.4001C147.1 15.3001 147.4 14.3001 148.1 13.5001C148.8 12.7001 149.8 12.3001 150.8 12.4001C151.8 12.4001 152.8 12.8001 153.5 13.5001C154.3 14.3001 154.6 15.3001 154.6 16.3001ZM152.8 16.3001C152.8 15.7001 152.7 15.0001 152.3 14.5001C152 13.9001 151.4 13.6001 150.8 13.6001C150.2 13.6001 149.6 13.9001 149.3 14.5001C149 15.1001 148.8 15.7001 148.9 16.3001C148.9 16.9001 149 17.6001 149.3 18.1001C149.6 18.7001 150.2 19.0001 150.8 19.0001C151.4 19.0001 152 18.6001 152.3 18.1001C152.7 17.6001 152.9 17.0001 152.8 16.3001Z" fill="#DFDFDF"/>
<path d="M163.6 20.1H162V15.8C162 14.5 161.5 13.8 160.5 13.8C160 13.8 159.6 14 159.3 14.3C159 14.7 158.8 15.1 158.8 15.6V20.1H157V14.7C157 14 157 13.3 157 12.5H158.5L158.6 13.7C158.8 13.3 159.1 13 159.5 12.8C160 12.5 160.5 12.3 161.1 12.3C161.8 12.3 162.4 12.5 162.9 13C163.5 13.7 163.8 14.6 163.8 15.5V20.1H163.6Z" fill="#DFDFDF"/>
<path d="M174.9 13.8H173V17.5C173 18.4 173.3 18.9 174 18.9C174.3 18.9 174.5 18.9 174.7 18.8V20C174.3 20.1 173.8 20.2 173.4 20.2C172.8 20.2 172.2 20 171.8 19.6C171.4 19 171.2 18.3 171.2 17.6V13.8H170.1V12.6H171.2V11.2L172.8 10.7V12.6H174.7L174.9 13.8Z" fill="#DFDFDF"/>
<path d="M183.8 20.1H182.1V15.8C182.1 14.4 181.6 13.8 180.6 13.8C179.9 13.8 179.2 14.2 179 14.9C178.9 15.1 178.9 15.3 178.9 15.5V20H177.2V9H178.9V13.6C179.4 12.8 180.2 12.3 181.2 12.4C181.8 12.4 182.5 12.6 182.9 13.1C183.5 13.8 183.8 14.7 183.8 15.6V20.1Z" fill="#DFDFDF"/>
<path d="M193 16.0001C193 16.3001 193 16.5001 192.9 16.8001H187.9C187.9 17.5001 188.1 18.1001 188.6 18.5001C189.1 18.9001 189.6 19.0001 190.2 19.0001C190.9 19.0001 191.5 18.9001 192.2 18.7001L192.5 19.9001C191.7 20.2001 190.9 20.4001 190 20.4001C189 20.4001 188 20.1001 187.2 19.4001C186.5 18.6001 186.1 17.6001 186.2 16.6001C186.2 15.6001 186.5 14.6001 187.1 13.8001C187.7 13.0001 188.7 12.5001 189.7 12.6001C190.7 12.5001 191.6 13.0001 192.2 13.8001C192.9 14.3001 193.1 15.2001 193 16.0001ZM191.4 15.6001C191.4 15.2001 191.3 14.7001 191.1 14.4001C190.8 13.9001 190.3 13.7001 189.8 13.7001C189.3 13.7001 188.8 14.0001 188.5 14.4001C188.2 14.8001 188 15.2001 188 15.7001L191.4 15.6001Z" fill="#DFDFDF"/>
</svg>
