<svg width="30" height="30" viewBox="0 0 30 30" fill="none" xmlns="http://www.w3.org/2000/svg">
<path d="M9.68793 5.75565C9.5946 5.84898 9.52377 5.96147 9.46461 6.0848L9.45794 6.07814L0.111575 27.1325L0.120741 27.1416C-0.0525865 27.4775 0.237404 28.1608 0.831552 28.7557C1.4257 29.3499 2.10901 29.6399 2.44483 29.4666L2.45317 29.4749L23.5075 20.1277L23.5008 20.1202C23.6233 20.0619 23.7358 19.991 23.83 19.896C25.1316 18.5944 23.0208 14.3737 19.1168 10.4688C15.2111 6.56395 10.9904 4.45402 9.68793 5.75565Z" fill="#DD2E44"/>
<path d="M10.8329 9.51553L0.346567 26.6033L0.111575 27.1325L0.120741 27.1416C-0.0525865 27.4774 0.237404 28.1608 0.831552 28.7557C1.02488 28.9491 1.22571 29.0957 1.42237 29.2199L14.1661 13.6821L10.8329 9.51553Z" fill="#EA596E"/>
<path d="M19.176 10.4038C23.0675 14.297 25.2283 18.4469 24 19.6735C22.7725 20.9018 18.6227 18.7419 14.7286 14.8504C10.8363 10.9571 8.67632 6.80561 9.90378 5.57815C11.1321 4.35069 15.2819 6.51062 19.176 10.4038Z" fill="#A0041E"/>
<path d="M15.4913 10.8563C15.3254 10.9905 15.1088 11.0605 14.8796 11.0355C14.1563 10.9571 13.548 10.7055 13.1222 10.308C12.6713 9.88718 12.4489 9.3222 12.5097 8.75638C12.6163 7.76308 13.613 6.85145 15.3121 7.03477C15.9729 7.1056 16.2679 6.89311 16.2779 6.79145C16.2896 6.69062 16.0471 6.41979 15.3863 6.34813C14.6629 6.2698 14.0546 6.01814 13.628 5.62065C13.1772 5.19983 12.9538 4.63485 13.0155 4.06903C13.1238 3.07573 14.1196 2.1641 15.8171 2.34826C16.2987 2.39992 16.5529 2.30076 16.6604 2.23659C16.7462 2.18409 16.7804 2.1341 16.7837 2.10493C16.7937 2.0041 16.5546 1.73328 15.8921 1.66161C15.4346 1.61161 15.1029 1.20163 15.1538 0.743307C15.2029 0.285822 15.6121 -0.0450008 16.0712 0.00499763C17.7687 0.187492 18.5487 1.28996 18.4412 2.28409C18.3328 3.27906 17.337 4.18903 15.6379 4.00654C15.1563 3.95404 14.9046 4.05403 14.7963 4.1182C14.7104 4.16986 14.6754 4.2207 14.6721 4.24903C14.6613 4.35069 14.9021 4.62068 15.5646 4.69235C17.262 4.87568 18.042 5.97731 17.9345 6.97144C17.827 7.96474 16.8312 8.87638 15.1329 8.69222C14.6513 8.64056 14.398 8.74055 14.2896 8.80388C14.203 8.85721 14.1696 8.90721 14.1663 8.93555C14.1555 9.03638 14.3963 9.3072 15.0579 9.37887C15.5146 9.42886 15.8471 9.83968 15.7962 10.2972C15.7729 10.5255 15.6571 10.723 15.4913 10.8563Z" fill="#AA8DD8"/>
<path d="M25.55 18.5627C27.1941 18.0986 28.3282 18.8319 28.5982 19.7944C28.8682 20.756 28.2832 21.9735 26.6399 22.4359C25.9983 22.6159 25.8058 22.9226 25.8316 23.0201C25.8599 23.1184 26.1858 23.2801 26.8257 23.0993C28.469 22.6368 29.6032 23.3701 29.8731 24.3317C30.1448 25.2942 29.5582 26.51 27.914 26.9733C27.2732 27.1533 27.0799 27.4608 27.1082 27.5583C27.1357 27.6558 27.4607 27.8174 28.1015 27.6375C28.5432 27.5133 29.0048 27.7708 29.129 28.2133C29.2523 28.6566 28.9948 29.1166 28.5515 29.2416C26.9091 29.7041 25.7741 28.9724 25.5025 28.0091C25.2325 27.0475 25.8183 25.8317 27.4632 25.3684C28.1049 25.1875 28.2974 24.8817 28.269 24.7834C28.2424 24.6859 27.9174 24.5234 27.2774 24.7034C25.6324 25.1667 24.4992 24.4351 24.2283 23.4709C23.9575 22.5093 24.5433 21.2935 26.1874 20.8293C26.8274 20.6502 27.0199 20.3418 26.9932 20.2452C26.9649 20.1469 26.6407 19.9852 25.9999 20.1652C25.5566 20.2902 25.0975 20.0319 24.9725 19.5894C24.8483 19.1477 25.1066 18.6877 25.55 18.5627Z" fill="#77B255"/>
<path d="M19.1669 16.3153C18.922 16.3153 18.6803 16.2078 18.5153 16.0028C18.2278 15.6428 18.287 15.1187 18.6453 14.8312C18.827 14.6854 23.1602 11.2821 29.2841 12.1579C29.7399 12.2229 30.0566 12.6446 29.9916 13.1004C29.9266 13.5554 29.5083 13.8754 29.0483 13.8071C23.6376 13.0388 19.7261 16.102 19.6878 16.1328C19.5328 16.2561 19.3494 16.3153 19.1669 16.3153Z" fill="#AA8DD8"/>
<path d="M4.79483 12.8488C4.71566 12.8488 4.63483 12.8371 4.55483 12.8138C4.11401 12.6813 3.86402 12.2171 3.99652 11.7763C4.94065 8.63223 5.79646 3.61489 4.74483 2.30659C4.62733 2.15827 4.44984 2.01244 4.04318 2.04327C3.26154 2.10327 3.33571 3.75238 3.33654 3.76905C3.37154 4.2282 3.02655 4.62819 2.56823 4.66235C2.10241 4.69068 1.70909 4.35236 1.67492 3.89321C1.58909 2.74408 1.94658 0.530817 3.91819 0.381655C4.79816 0.314991 5.52897 0.620814 6.04479 1.26246C8.02056 3.72155 6.01479 10.8505 5.59313 12.2554C5.4848 12.6163 5.15315 12.8488 4.79483 12.8488Z" fill="#77B255"/>
<path d="M21.2493 8.68222C21.9397 8.68222 22.4993 8.1226 22.4993 7.43226C22.4993 6.74193 21.9397 6.1823 21.2493 6.1823C20.559 6.1823 19.9994 6.74193 19.9994 7.43226C19.9994 8.1226 20.559 8.68222 21.2493 8.68222Z" fill="#5C913B"/>
<path d="M1.66661 16.182C2.58706 16.182 3.33323 15.4358 3.33323 14.5154C3.33323 13.5949 2.58706 12.8488 1.66661 12.8488C0.746168 12.8488 0 13.5949 0 14.5154C0 15.4358 0.746168 16.182 1.66661 16.182Z" fill="#9266CC"/>
<path d="M27.0825 17.0153C27.7728 17.0153 28.3324 16.4557 28.3324 15.7653C28.3324 15.075 27.7728 14.5154 27.0825 14.5154C26.3921 14.5154 25.8325 15.075 25.8325 15.7653C25.8325 16.4557 26.3921 17.0153 27.0825 17.0153Z" fill="#5C913B"/>
<path d="M19.5827 27.015C20.273 27.015 20.8327 26.4553 20.8327 25.765C20.8327 25.0747 20.273 24.515 19.5827 24.515C18.8924 24.515 18.3327 25.0747 18.3327 25.765C18.3327 26.4553 18.8924 27.015 19.5827 27.015Z" fill="#5C913B"/>
<path d="M23.3326 4.51569C24.253 4.51569 24.9992 3.76952 24.9992 2.84908C24.9992 1.92863 24.253 1.18246 23.3326 1.18246C22.4122 1.18246 21.666 1.92863 21.666 2.84908C21.666 3.76952 22.4122 4.51569 23.3326 4.51569Z" fill="#FFCC4D"/>
<path d="M27.0825 7.84891C27.7728 7.84891 28.3324 7.28929 28.3324 6.59895C28.3324 5.90862 27.7728 5.34899 27.0825 5.34899C26.3921 5.34899 25.8325 5.90862 25.8325 6.59895C25.8325 7.28929 26.3921 7.84891 27.0825 7.84891Z" fill="#FFCC4D"/>
<path d="M24.5825 11.1821C25.2729 11.1821 25.8325 10.6225 25.8325 9.93218C25.8325 9.24185 25.2729 8.68222 24.5825 8.68222C23.8922 8.68222 23.3326 9.24185 23.3326 9.93218C23.3326 10.6225 23.8922 11.1821 24.5825 11.1821Z" fill="#FFCC4D"/>
<path d="M6.24981 20.3485C6.94014 20.3485 7.49977 19.7889 7.49977 19.0986C7.49977 18.4082 6.94014 17.8486 6.24981 17.8486C5.55947 17.8486 4.99985 18.4082 4.99985 19.0986C4.99985 19.7889 5.55947 20.3485 6.24981 20.3485Z" fill="#FFCC4D"/>
</svg>
