<svg width="1055" height="493" viewBox="0 0 1055 493" fill="none" xmlns="http://www.w3.org/2000/svg">
<g opacity="0.3">
<path d="M281.376 384.538H292.159H462.499" stroke="#00BEC5" stroke-width="4.6608" stroke-miterlimit="10" stroke-linecap="round" stroke-linejoin="round"/>
<path d="M866.72 384.538H687.266" stroke="#00BEC5" stroke-width="4.6608" stroke-miterlimit="10" stroke-linecap="round" stroke-linejoin="round"/>
<path d="M667.626 384.538H483.422" stroke="#00BEC5" stroke-width="4.6608" stroke-miterlimit="10" stroke-linecap="round" stroke-linejoin="round"/>
<path d="M1074.8 384.538H886.36" stroke="#00BEC5" stroke-width="4.6608" stroke-miterlimit="10" stroke-linecap="round" stroke-linejoin="round"/>
<path d="M268.283 384.538H234.779" stroke="#00BEC5" stroke-width="4.6608" stroke-miterlimit="10" stroke-linecap="round" stroke-linejoin="round"/>
<path d="M265.587 355.778H223.868" stroke="#00BEC5" stroke-width="4.6608" stroke-miterlimit="10" stroke-linecap="round" stroke-linejoin="round"/>
<path d="M1074.8 355.778H886.36" stroke="#00BEC5" stroke-width="4.6608" stroke-miterlimit="10" stroke-linecap="round" stroke-linejoin="round"/>
<path d="M666.599 355.778H481.625" stroke="#00BEC5" stroke-width="4.6608" stroke-miterlimit="10" stroke-linecap="round" stroke-linejoin="round"/>
<path d="M866.72 355.778H686.239" stroke="#00BEC5" stroke-width="4.6608" stroke-miterlimit="10" stroke-linecap="round" stroke-linejoin="round"/>
<path d="M278.681 355.778H289.463H293.443H306.536H460.702" stroke="#00BEC5" stroke-width="4.6608" stroke-miterlimit="10" stroke-linecap="round" stroke-linejoin="round"/>
<path d="M254.805 244.461H181.637" stroke="#00BEC5" stroke-width="4.6608" stroke-miterlimit="10" stroke-linecap="round" stroke-linejoin="round"/>
<path d="M1074.8 244.461H886.36" stroke="#00BEC5" stroke-width="4.6608" stroke-miterlimit="10" stroke-linecap="round" stroke-linejoin="round"/>
<path d="M662.235 244.461H474.951" stroke="#00BEC5" stroke-width="4.6608" stroke-miterlimit="10" stroke-linecap="round" stroke-linejoin="round"/>
<path d="M866.72 244.461H681.875" stroke="#00BEC5" stroke-width="4.6608" stroke-miterlimit="10" stroke-linecap="round" stroke-linejoin="round"/>
<path d="M267.897 244.461H278.808H453.898" stroke="#00BEC5" stroke-width="4.6608" stroke-miterlimit="10" stroke-linecap="round" stroke-linejoin="round"/>
<path d="M257.629 138.408H268.668H372.901H447.481" stroke="#00BEC5" stroke-width="4.6608" stroke-miterlimit="10" stroke-linecap="round" stroke-linejoin="round"/>
<path d="M866.72 138.408H677.767" stroke="#00BEC5" stroke-width="4.6608" stroke-miterlimit="10" stroke-linecap="round" stroke-linejoin="round"/>
<path d="M658.127 138.408H542.599H500.238H497.671H468.404" stroke="#00BEC5" stroke-width="4.6608" stroke-miterlimit="10" stroke-linecap="round" stroke-linejoin="round"/>
<path d="M886.36 138.408H919.863H953.11H1074.8" stroke="#00BEC5" stroke-width="4.6608" stroke-miterlimit="10" stroke-linecap="round" stroke-linejoin="round"/>
<path d="M108.34 147.524V138.408H244.536" stroke="#00BEC5" stroke-width="4.6608" stroke-miterlimit="10" stroke-linecap="round" stroke-linejoin="round"/>
<path d="M491.766 521.919H470.842L444.656 91.2876H465.579L491.766 521.919Z" stroke="#00BEC5" stroke-width="4.6608" stroke-miterlimit="10" stroke-linecap="round" stroke-linejoin="round"/>
<path d="M886.36 84.7395H866.72V521.277H886.36V84.7395Z" stroke="#00BEC5" stroke-width="4.6608" stroke-miterlimit="10" stroke-linecap="round" stroke-linejoin="round"/>
<path d="M692.657 521.277H673.017L655.945 84.7395H675.584L692.657 521.277Z" stroke="#00BEC5" stroke-width="4.6608" stroke-miterlimit="10" stroke-linecap="round" stroke-linejoin="round"/>
<path d="M293.956 521.919C292.03 498.294 287.152 445.396 281.376 384.538C280.477 375.165 279.579 365.536 278.68 355.778C276.241 329.971 273.674 303.265 271.107 277.201C270.08 266.159 268.925 255.246 267.898 244.461C263.918 203.632 260.324 166.269 257.628 138.408C254.676 108.621 252.879 90.0037 252.879 90.0037" stroke="#00BEC5" stroke-width="4.6608" stroke-miterlimit="10" stroke-linecap="round" stroke-linejoin="round"/>
<path d="M252.878 90.0037H239.785C239.785 90.0037 241.582 108.749 244.535 138.408C247.23 166.141 250.825 203.632 254.804 244.461C255.831 255.117 256.858 266.159 258.013 277.201C260.452 303.265 263.019 329.842 265.586 355.778C266.485 365.536 267.384 375.165 268.282 384.538C270.978 413.555 273.545 440.646 275.727 463.756C276.626 474.285 277.524 483.914 278.295 492.517C278.551 495.726 278.808 498.679 279.065 501.632L279.45 505.869C279.835 509.978 280.092 513.701 280.348 517.04L280.734 521.919" stroke="#00BEC5" stroke-width="4.6608" stroke-miterlimit="10" stroke-linecap="round" stroke-linejoin="round"/>
<path d="M268.668 138.408L267.512 125.44" stroke="#00BEC5" stroke-width="4.6608" stroke-miterlimit="10" stroke-linecap="round" stroke-linejoin="round"/>
<path d="M271.107 277.201H282.018H293.442H306.536H455.952" stroke="#00BEC5" stroke-width="4.6608" stroke-miterlimit="10" stroke-linecap="round" stroke-linejoin="round"/>
<path d="M866.72 277.201H683.158" stroke="#00BEC5" stroke-width="4.6608" stroke-miterlimit="10" stroke-linecap="round" stroke-linejoin="round"/>
<path d="M476.876 277.201H663.134H663.519" stroke="#00BEC5" stroke-width="4.6608" stroke-miterlimit="10" stroke-linecap="round" stroke-linejoin="round"/>
<path d="M1074.8 277.201H886.36" stroke="#00BEC5" stroke-width="4.6608" stroke-miterlimit="10" stroke-linecap="round" stroke-linejoin="round"/>
<path d="M258.014 277.201H194.088" stroke="#00BEC5" stroke-width="4.6608" stroke-miterlimit="10" stroke-linecap="round" stroke-linejoin="round"/>
<path d="M866.72 485.07H865.308L729.883 485.327H691.245" stroke="#00BEC5" stroke-width="4.6608" stroke-miterlimit="10" stroke-linecap="round" stroke-linejoin="round"/>
<path d="M1094.31 484.813L1107.28 484.685H1107.4H1148.35L1141.68 504.586L1136.29 520.635L1094.31 520.763H1074.8L886.36 521.02L866.721 521.148L491.767 521.662H470.843L293.956 521.919L290.875 485.969H311.414H319.629L468.661 485.712" stroke="#00BEC5" stroke-width="4.6608" stroke-miterlimit="10" stroke-linecap="round" stroke-linejoin="round"/>
<path d="M671.605 485.455L489.583 485.712" stroke="#00BEC5" stroke-width="4.6608" stroke-miterlimit="10" stroke-linecap="round" stroke-linejoin="round"/>
<path d="M886.36 485.07H902.149H905.872L1074.8 484.813" stroke="#00BEC5" stroke-width="4.6608" stroke-miterlimit="10" stroke-linecap="round" stroke-linejoin="round"/>
<path d="M279.194 501.632L275.728 492.517L264.817 463.756L253.393 433.584L242.995 406.108L234.78 384.538L231.571 376.064L223.869 355.778L220.66 347.175L209.749 318.415L198.838 289.655L194.088 277.201L181.637 244.461L178.299 235.345L177.529 233.419L167.26 206.2L166.618 204.53L156.092 177.054L154.423 172.689L134.013 161.519L112.191 149.578L108.34 147.524L92.0379 138.665L54.5554 118.122L51.4746 116.453L2.95264 90.0037L25.5449 149.578L35.9424 177.054L46.34 204.53L57.251 233.419L68.162 262.179L78.688 289.655L89.599 318.415L90.6259 321.368L93.3216 328.173L100.51 347.175L111.421 376.064L122.845 406.108L133.243 433.584L144.668 463.756L155.579 492.517L166.746 521.919H168.543H200.635H234.651H265.331H280.863L279.194 501.632Z" stroke="#00BEC5" stroke-width="4.6608" stroke-miterlimit="10" stroke-linecap="round" stroke-linejoin="round"/>
<path d="M1418.05 90.0037L1395.46 149.578L1385.06 177.054L1374.66 204.53L1363.75 233.291L1352.84 262.179L1349.12 271.937L1342.44 289.655L1342.31 289.912L1331.53 318.415L1320.62 347.175L1309.71 376.064L1298.28 406.108L1287.89 433.584L1276.46 463.756L1265.55 492.517L1254.38 521.919H305.38L1136.29 520.635L1141.68 504.585L1148.35 484.685L1156.31 463.756L1167.74 433.584L1178.13 406.108L1186.22 384.538L1189.56 376.064L1193.79 364.637L1197.13 355.778L1200.47 347.175L1211.38 318.415L1222.29 289.655L1226.91 277.201L1239.36 244.461L1243.6 233.291L1251.43 212.619L1254.51 204.53L1254.64 204.145L1264.91 177.054L1265.55 175.514L1266.58 172.689L1286.99 161.519L1308.94 149.578L1312.66 147.524L1328.96 138.665L1366.44 118.122L1369.65 116.453L1418.05 90.0037Z" stroke="#00BEC5" stroke-width="4.6608" stroke-miterlimit="10" stroke-linecap="round" stroke-linejoin="round"/>
<path d="M267.512 125.44C387.277 49.6883 551.456 3.08154 732.578 3.08154C923.971 3.08154 1096.36 55.2092 1217.54 138.536" stroke="#00BEC5" stroke-width="4.6608" stroke-miterlimit="10" stroke-linecap="round" stroke-linejoin="round"/>
<path d="M466.863 113.114C468.532 112.729 470.201 112.344 471.87 112.087C476.747 111.06 481.625 110.033 486.632 109.006C494.847 107.337 503.062 105.796 511.534 104.255C536.309 99.89 561.725 96.1666 587.783 93.3419C588.81 93.2135 589.709 93.0851 590.736 93.0851C603.059 91.6728 615.51 90.5173 628.09 89.6185C637.332 88.8482 646.703 88.2062 656.073 87.6926" stroke="#00BEC5" stroke-width="4.6608" stroke-miterlimit="10" stroke-linecap="round" stroke-linejoin="round"/>
<path d="M886.36 94.6257C904.459 96.8084 922.302 99.3763 939.888 102.329C943.482 102.971 946.948 103.485 950.542 104.127C950.542 104.127 950.542 104.127 950.671 104.127C960.041 105.796 969.155 107.465 978.269 109.391C1003.69 114.527 1028.2 120.433 1051.95 127.109C1055.8 128.136 1059.65 129.292 1063.5 130.447C1064.53 130.833 1065.69 131.089 1066.71 131.475C1069.41 132.245 1072.1 133.015 1074.67 133.914" stroke="#00BEC5" stroke-width="4.6608" stroke-miterlimit="10" stroke-linecap="round" stroke-linejoin="round"/>
<path d="M866.72 92.4432C865.95 92.3148 865.308 92.3148 864.538 92.1864C853.242 91.0309 841.817 90.0037 830.393 89.105C827.697 88.8482 824.873 88.7198 822.177 88.463C797.403 86.7939 772.243 85.7667 746.827 85.3816C741.693 85.2532 736.43 85.2532 731.295 85.2532C722.181 85.2532 713.067 85.3816 703.953 85.51C694.454 85.7667 685.084 86.0235 675.713 86.4087" stroke="#00BEC5" stroke-width="4.6608" stroke-miterlimit="10" stroke-linecap="round" stroke-linejoin="round"/>
<path d="M446.196 117.865C422.449 123.514 399.6 129.934 377.521 136.996C375.981 137.509 374.44 138.023 372.9 138.536" stroke="#00BEC5" stroke-width="4.6608" stroke-miterlimit="10" stroke-linecap="round" stroke-linejoin="round"/>
<path d="M677.253 125.825C693.684 125.184 710.243 124.798 726.931 124.798C727.573 124.798 728.086 124.798 728.728 124.798C729.626 124.798 730.397 124.798 731.295 124.798C768.906 124.798 805.875 126.339 841.817 129.421C850.161 130.191 858.505 130.961 866.72 131.732" stroke="#00BEC5" stroke-width="4.6608" stroke-miterlimit="10" stroke-linecap="round" stroke-linejoin="round"/>
<path d="M919.863 138.408C908.824 136.739 897.656 135.198 886.36 133.914" stroke="#00BEC5" stroke-width="4.6608" stroke-miterlimit="10" stroke-linecap="round" stroke-linejoin="round"/>
<path d="M657.614 126.724C657.1 126.724 656.587 126.724 656.073 126.853C641.953 127.623 628.09 128.65 614.226 129.934C613.713 129.934 613.199 130.062 612.686 130.062C588.81 132.245 565.448 135.07 542.599 138.408" stroke="#00BEC5" stroke-width="4.6608" stroke-miterlimit="10" stroke-linecap="round" stroke-linejoin="round"/>
<path d="M1074.8 125.954L1063.5 130.448L1031.03 48.5327" stroke="#00BEC5" stroke-width="4.6608" stroke-miterlimit="10" stroke-linecap="round" stroke-linejoin="round"/>
<path d="M909.08 18.232C951.569 25.8072 992.389 35.9502 1031.03 48.4044C1031.03 48.4044 953.751 103.613 950.67 104.127C950.67 104.127 950.67 104.127 950.542 104.127C946.563 102.33 909.594 19.5159 909.08 18.232ZM909.08 18.232L830.393 89.105L785.721 10.2716C785.721 10.2716 785.721 10.2716 785.721 10.1432L783.411 6.03462L783.283 5.77783L711.527 84.7397L660.822 12.7111V12.5827L656.33 6.4198L655.945 5.77783L590.735 92.9568L539.389 21.3134L539.261 21.5702L538.362 22.9825L486.76 108.878L465.708 91.6729L465.194 91.1593L418.854 53.4117L377.649 136.739C377.649 136.739 310.386 101.174 306.663 102.33" stroke="#00BEC5" stroke-width="4.6608" stroke-miterlimit="10" stroke-linecap="round" stroke-linejoin="round"/>
<path d="M512.048 485.326H669.038V420.616V406.75H668.525" stroke="#00BEC5" stroke-width="4.6608" stroke-miterlimit="10" stroke-linecap="round" stroke-linejoin="round"/>
<path d="M708.318 485.327H729.883H865.308V485.07" stroke="#00BEC5" stroke-width="4.6608" stroke-miterlimit="10" stroke-linecap="round" stroke-linejoin="round"/>
<path d="M905.872 485.07H902.149" stroke="#00BEC5" stroke-width="4.6608" stroke-miterlimit="10" stroke-linecap="round" stroke-linejoin="round"/>
<path d="M319.629 485.969H311.414" stroke="#00BEC5" stroke-width="4.6608" stroke-miterlimit="10" stroke-linecap="round" stroke-linejoin="round"/>
<path d="M728.728 124.67L746.827 85.51L783.411 6.03457L783.668 5.521C783.668 5.521 784.438 7.19011 785.85 10.1432C785.85 10.1432 785.85 10.1432 785.85 10.2715C791.755 22.9825 808.571 59.3178 822.306 88.5914C832.832 111.06 841.561 129.42 841.946 129.42C842.203 129.164 852.343 112.601 864.666 92.3148C865.437 91.1593 866.078 90.0038 866.849 88.7198C867.619 87.4359 868.389 86.152 869.159 84.868C887.901 54.182 909.338 18.7455 909.338 18.7455L940.017 102.458L953.238 138.536L978.398 109.52L1031.03 48.9179L1052.08 127.238L1054.65 136.611L1066.84 131.475L1074.8 128.137" stroke="#00BEC5" stroke-width="4.6608" stroke-miterlimit="10" stroke-linecap="round" stroke-linejoin="round"/>
<path d="M614.227 129.934L628.09 89.4902L656.33 6.41977L656.587 5.77781V5.64941L656.715 5.77781L660.695 12.5826L660.823 12.711L703.954 85.7668L726.931 124.67" stroke="#00BEC5" stroke-width="4.6608" stroke-miterlimit="10" stroke-linecap="round" stroke-linejoin="round"/>
<path d="M500.239 138.408L511.535 104.256L538.235 23.111L538.877 21.4419V21.3135L539.005 21.4419L539.133 21.6987L587.784 93.3421L612.686 130.063" stroke="#00BEC5" stroke-width="4.6608" stroke-miterlimit="10" stroke-linecap="round" stroke-linejoin="round"/>
<path d="M497.67 138.408L471.869 111.959" stroke="#00BEC5" stroke-width="4.6608" stroke-miterlimit="10" stroke-linecap="round" stroke-linejoin="round"/>
<path d="M561.212 185.272H553.638V204.916H550.943V185.272H543.369V182.832H561.084V185.272H561.212Z" fill="#00BEC5"/>
<path d="M578.67 182.832H581.365V204.787H578.67V194.901H566.218V204.787H563.523V182.832H566.218V192.59H578.67V182.832Z" fill="#00BEC5"/>
<path d="M600.749 185.272H587.913V192.333H599.465V194.773H587.913V202.605H600.492V205.044H585.345V183.089H600.749V185.272Z" fill="#00BEC5"/>
<path d="M759.022 196.699C758.38 201.578 754.914 205.301 749.266 205.301C743.105 205.301 738.869 200.807 738.869 193.746C738.869 186.684 743.105 182.319 749.266 182.319C754.914 182.319 758.509 186.042 759.15 190.921H756.326C755.813 187.583 753.374 184.758 749.266 184.758C744.773 184.758 741.564 188.096 741.564 193.746C741.564 199.395 744.645 202.862 749.266 202.862C753.374 202.862 755.684 200.037 756.326 196.699H759.022V196.699Z" fill="#00BEC5"/>
<path d="M762.103 182.832H764.798V204.787H762.103V182.832Z" fill="#00BEC5"/>
<path d="M775.324 204.787L766.98 182.832H769.805L771.73 188.096C773.399 192.718 775.196 197.34 776.865 201.963H776.993C778.79 197.34 780.459 192.718 782.256 188.225L784.181 182.96H787.005L778.405 204.916H775.324V204.787Z" fill="#00BEC5"/>
<path d="M789.188 182.832H791.884V204.787H789.188V182.832Z" fill="#00BEC5"/>
<path d="M815.118 196.699C814.476 201.578 811.01 205.301 805.362 205.301C799.2 205.301 794.964 200.807 794.964 193.746C794.964 186.684 799.2 182.319 805.362 182.319C811.01 182.319 814.604 186.042 815.246 190.921H812.422C811.909 187.583 809.47 184.758 805.362 184.758C800.869 184.758 797.66 188.096 797.66 193.746C797.66 199.395 800.741 202.862 805.362 202.862C809.47 202.862 811.78 200.037 812.422 196.699H815.118V196.699Z" fill="#00BEC5"/>
<path d="M940.915 196.699C940.274 201.578 936.808 205.301 931.16 205.301C924.998 205.301 920.762 200.807 920.762 193.746C920.762 186.684 924.998 182.319 931.16 182.319C936.808 182.319 940.402 186.042 941.044 190.921H938.22C937.706 187.583 935.267 184.758 931.16 184.758C926.667 184.758 923.458 188.096 923.458 193.746C923.458 199.395 926.539 202.862 931.16 202.862C935.267 202.862 937.578 200.037 938.22 196.699H940.915V196.699Z" fill="#00BEC5"/>
<path d="M959.399 185.272H946.563V192.333H958.116V194.773H946.563V202.605H959.143V205.044H943.867V183.089H959.271V185.272H959.399Z" fill="#00BEC5"/>
<path d="M964.663 186.684C964.791 189.894 964.791 192.847 964.791 195.671V204.787H962.095V182.832H965.304L973.391 194.901C974.675 196.827 975.959 198.753 977.499 201.064H977.627C977.499 198.496 977.499 196.313 977.499 194.002V182.832H980.195V204.787H976.985L969.925 194.387C968.385 191.948 966.588 189.38 964.663 186.684Z" fill="#00BEC5"/>
<path d="M1000.35 185.272H992.775V204.916H990.079V185.272H982.505V182.832H1000.22V185.272H1000.35Z" fill="#00BEC5"/>
<path d="M1019.86 204.787H1017.16L1016.01 198.881C1015.62 196.442 1014.73 195.928 1011.9 195.928H1005.23V204.787H1002.53V182.832H1011.9C1016.27 182.832 1019.22 185.015 1019.22 188.353C1019.22 191.434 1017.16 193.617 1013.96 193.874V194.002C1016.91 194.131 1017.81 195.415 1018.32 198.111L1019.86 204.787ZM1011.9 193.489C1014.73 193.489 1016.65 191.82 1016.65 189.123C1016.65 186.684 1014.73 185.143 1011.9 185.143H1005.35V193.489H1011.9Z" fill="#00BEC5"/>
<path d="M1038.09 185.272H1025.25V192.333H1036.8V194.773H1025.25V202.605H1037.83V205.044H1022.56V183.089H1037.96V185.272H1038.09Z" fill="#00BEC5"/>
</g>
</svg>
