<svg width="132" height="74" viewBox="0 0 132 74" fill="none" xmlns="http://www.w3.org/2000/svg">
<g clip-path="url(#clip0_101_1127)">
<path d="M14.2565 65.1393V62.3047H9.8242C8.17499 62.3047 6.96384 62.3305 5.57231 62.4593L5.52078 62.2789C10.2107 58.7228 14.3853 56.1459 14.3853 52.0744C14.4111 48.6213 11.7311 46.6887 8.04614 46.6887C4.25809 46.6887 1.62965 48.6213 1.55234 52.7444H4.77347C4.85078 50.3994 6.11346 49.3429 8.04614 49.3429C9.84997 49.3429 11.0353 50.3736 11.0353 52.1517C11.0353 54.9863 7.29884 57.5632 1.34619 62.382L1.37196 65.1393H14.2565ZM23.3383 65.5258C28.3117 65.5258 30.6824 62.047 30.6824 56.1201C30.6824 50.219 28.3374 46.6887 23.3383 46.6887C18.3391 46.6887 15.9683 50.1932 15.9683 56.1201C15.9683 61.9955 18.2875 65.5258 23.3383 65.5258ZM23.3383 62.8458C20.6067 62.8458 19.4729 60.6039 19.4729 56.1201C19.4729 51.6105 20.6067 49.3686 23.3383 49.3686C25.9925 49.3686 27.1778 51.6105 27.1778 56.1201C27.1778 60.6039 25.9925 62.8458 23.3383 62.8458ZM45.1089 65.1393V62.3047H40.6766C39.0274 62.3047 37.8162 62.3305 36.4247 62.4593L36.3732 62.2789C41.0631 58.7228 45.2377 56.1459 45.2377 52.0744C45.2635 48.6213 42.5835 46.6887 38.8985 46.6887C35.1105 46.6887 32.482 48.6213 32.4047 52.7444H35.6259C35.7032 50.3994 36.9658 49.3429 38.8985 49.3429C40.7024 49.3429 41.8877 50.3736 41.8877 52.1517C41.8877 54.9863 38.1512 57.5632 32.1986 62.382L32.2243 65.1393H45.1089ZM60.1072 65.1393V62.3047H55.675C54.0258 62.3047 52.8146 62.3305 51.4231 62.4593L51.3715 62.2789C56.0615 58.7228 60.2361 56.1459 60.2361 52.0744C60.2619 48.6213 57.5819 46.6887 53.8969 46.6887C50.1089 46.6887 47.4804 48.6213 47.4031 52.7444H50.6242C50.7015 50.3994 51.9642 49.3429 53.8969 49.3429C55.7007 49.3429 56.8861 50.3736 56.8861 52.1517C56.8861 54.9863 53.1496 57.5632 47.197 62.382L47.2227 65.1393H60.1072Z" fill="white"/>
<path d="M0.979223 30.5821C0.979223 34.8083 3.19536 37.7459 7.31841 37.7459C10.7972 37.7459 13.0391 35.2721 13.1422 32.1283H11.9568C11.828 34.7567 10.1272 36.6894 7.31841 36.6894C3.89112 36.6894 2.1646 34.0352 2.1646 30.5306C2.1646 27.1033 3.94266 24.681 7.31841 24.681C10.1272 24.681 11.8538 26.5106 11.9568 29.1391H13.1422C12.9876 25.9179 10.7715 23.6245 7.31841 23.6245C3.32421 23.6245 0.979223 26.4333 0.979223 30.5821ZM21.52 37.7459C25.308 37.7459 28.2199 34.8856 28.2199 30.6337C28.2199 26.4849 25.308 23.6245 21.52 23.6245C17.7319 23.6245 14.82 26.4849 14.82 30.6337C14.82 34.8856 17.7319 37.7459 21.52 37.7459ZM21.52 36.6894C18.2731 36.6894 16.0054 34.2413 16.0054 30.6337C16.0054 27.0775 18.2731 24.681 21.52 24.681C24.7669 24.681 27.0345 27.0775 27.0345 30.6337C27.0345 34.2413 24.7669 36.6894 21.52 36.6894ZM36.7418 23.6245C34.2938 23.6245 32.4126 25.2995 32.0261 27.8248H31.923L31.8457 24.0368H30.7376V37.3336H31.923V30.2987C31.923 26.9229 33.7011 24.681 36.381 24.681C38.726 24.681 40.2979 26.2787 40.2979 28.7268V37.3336H41.4318V28.4691C41.4318 25.5572 39.5764 23.6245 36.7418 23.6245ZM48.9376 20.1199C49.2468 20.1199 49.6076 20.1457 49.9941 20.1714V19.1149C49.6334 19.0891 49.2468 19.0891 48.9376 19.0891C46.3607 19.0891 44.9692 19.8364 44.9692 22.568V24.0368H43.1653V24.9645H44.9692V37.3336H46.1288V24.9645H49.9941V24.0368H46.103V22.7226C46.103 20.893 46.5669 20.1457 48.9376 20.1199ZM62.7953 29.9379C62.7953 25.9952 60.4246 23.5987 56.8169 23.6245C53.1577 23.6503 50.5293 26.0468 50.5293 30.6079C50.5293 35.3752 53.1835 37.7459 56.8427 37.7459C60.373 37.7459 62.3572 35.4267 62.6922 32.7983H61.5069C61.1461 35.2206 59.2907 36.7152 56.8169 36.7152C53.8277 36.7152 51.7146 34.6279 51.6889 30.711H62.7953V29.9379ZM56.7911 24.6553C59.6 24.6553 61.5326 26.2272 61.6099 29.8091H51.7146C51.7919 26.9229 53.6473 24.6553 56.7911 24.6553ZM66.4489 28.6752L66.4231 24.0368H65.2893V37.3336H66.4489V31.5614C66.4489 27.5414 67.9435 24.9902 71.8861 24.9129V23.8306C68.8969 23.8306 67.1446 25.2737 66.552 28.6752H66.4489ZM84.4624 29.9379C84.4624 25.9952 82.0917 23.5987 78.484 23.6245C74.8248 23.6503 72.1964 26.0468 72.1964 30.6079C72.1964 35.3752 74.8506 37.7459 78.5098 37.7459C82.0402 37.7459 84.0244 35.4267 84.3594 32.7983H83.174C82.8132 35.2206 80.9579 36.7152 78.484 36.7152C75.4948 36.7152 73.3818 34.6279 73.356 30.711H84.4624V29.9379ZM78.4583 24.6553C81.2671 24.6553 83.1998 26.2272 83.2771 29.8091H73.3818C73.4591 26.9229 75.3144 24.6553 78.4583 24.6553ZM92.9606 23.6245C90.5125 23.6245 88.6314 25.2995 88.2449 27.8248H88.1418L88.0645 24.0368H86.9564V37.3336H88.1418V30.2987C88.1418 26.9229 89.9198 24.681 92.5998 24.681C94.9448 24.681 96.5167 26.2787 96.5167 28.7268V37.3336H97.6506V28.4691C97.6506 25.5572 95.7952 23.6245 92.9606 23.6245ZM100.18 30.5821C100.18 34.8083 102.396 37.7459 106.519 37.7459C109.998 37.7459 112.24 35.2721 112.343 32.1283H111.158C111.029 34.7567 109.328 36.6894 106.519 36.6894C103.092 36.6894 101.365 34.0352 101.365 30.5306C101.365 27.1033 103.143 24.681 106.519 24.681C109.328 24.681 111.054 26.5106 111.158 29.1391H112.343C112.188 25.9179 109.972 23.6245 106.519 23.6245C102.525 23.6245 100.18 26.4333 100.18 30.5821ZM126.287 29.9379C126.287 25.9952 123.916 23.5987 120.308 23.6245C116.649 23.6503 114.021 26.0468 114.021 30.6079C114.021 35.3752 116.675 37.7459 120.334 37.7459C123.865 37.7459 125.849 35.4267 126.184 32.7983H124.998C124.638 35.2206 122.782 36.7152 120.308 36.7152C117.319 36.7152 115.206 34.6279 115.18 30.711H126.287V29.9379ZM120.283 24.6553C123.091 24.6553 125.024 26.2272 125.101 29.8091H115.206C115.283 26.9229 117.139 24.6553 120.283 24.6553Z" fill="white"/>
<path d="M22.7887 4.78226V13.4684H19.7144V5.90462C19.7144 3.80628 18.5921 2.53752 16.8353 2.53752C14.8834 2.53752 13.6146 4.14787 13.6146 6.6854V13.4684H10.5403V5.90462C10.5403 3.80628 9.46674 2.53752 7.66119 2.53752C5.85565 2.53752 4.63568 3.85508 4.48929 6.09982V13.4684H1.36618L1.31738 0.439187H4.29409L4.44049 4.29427H4.58688C4.92847 1.61035 6.88041 0 9.12515 0C11.5163 0 13.3706 1.61035 13.5658 4.29427H13.761C14.1026 1.61035 16.0545 0 18.2993 0C20.8368 0 22.7887 1.80555 22.7887 4.78226Z" fill="white"/>
<path d="M31.816 0C28.0098 0 24.7891 2.68392 24.7891 6.88059C24.7891 11.1749 27.961 13.8588 31.816 13.8588C35.6223 13.8588 38.843 11.1749 38.843 6.88059C38.843 2.68392 35.6223 0 31.816 0ZM31.816 11.4189C29.4737 11.4189 27.9122 9.8085 27.9122 6.88059C27.9122 4.00148 29.4737 2.43993 31.816 2.43993C34.2072 2.43993 35.7199 4.05028 35.7199 6.88059C35.7199 9.8085 34.2072 11.4189 31.816 11.4189Z" fill="white"/>
<path d="M53.629 4.92865V13.4684H50.5547V5.90462C50.5547 3.80628 49.3347 2.53752 47.3828 2.53752C45.2844 2.53752 43.9669 4.14787 43.9669 6.6854V13.4684H40.8926V0.390388H43.8693L43.9669 4.29427H44.1133C44.4549 1.65915 46.5044 0 48.8467 0C51.5795 0 53.629 1.80555 53.629 4.92865Z" fill="white"/>
<path d="M68.8055 6.4902C68.8055 2.92791 66.3656 0 62.3641 0C58.3626 0 55.6787 2.63512 55.6787 6.88059C55.6787 11.4677 58.3626 13.8588 62.5105 13.8588C65.4384 13.8588 68.3175 12.102 68.7079 8.88133H65.8776C65.536 10.3453 64.3161 11.4189 62.5105 11.4189C60.2658 11.4189 58.7042 10.0037 58.6554 7.46617H68.8055V6.4902ZM58.6554 5.75823C58.8018 3.51349 60.3146 2.39113 62.2665 2.39113C64.316 2.39113 65.6336 3.65989 65.8288 5.75823H58.6554Z" fill="white"/>
<path d="M75.7352 10.5893C76.6136 7.75896 77.5407 5.22143 78.1751 3.26949L79.1511 0.439178H82.4206L77.2968 13.7612C75.7352 17.7627 73.8321 18.5434 69.5866 18.2994V15.8107C72.1241 15.9571 72.8073 15.7131 73.6369 13.9076L73.8809 13.4196L69.0498 0.439178H72.3681L73.3441 3.36709C73.9785 5.27023 74.8568 7.80775 75.6376 10.6381H75.7352V10.5893Z" fill="white"/>
<path d="M86.8614 5.36783C87.4469 1.56155 88.7645 0.19519 92.4244 0.19519V2.78151C88.3741 3.0743 86.8614 4.34306 86.7638 8.29574V13.4196H83.6895V0.390385H86.6662L86.7638 5.36783H86.8614Z" fill="white"/>
<path d="M97.4015 0.390381H94.3271V13.4196H97.4015V0.390381Z" fill="white"/>
<path d="M99.5 9.22292H102.526C102.623 10.7845 103.794 11.614 105.893 11.614C107.601 11.614 108.674 10.9797 108.674 9.9061C108.674 9.12532 108.235 8.68614 106.869 8.39335L103.599 7.66137C101.208 7.17338 99.7928 5.95342 99.7928 3.95268C99.7928 1.51276 101.989 -0.0487976 105.502 -0.0487976C109.309 -0.0487976 111.553 1.65915 111.553 4.58706H108.577C108.577 3.07431 107.454 2.19593 105.551 2.19593C103.843 2.19593 102.818 2.83032 102.818 3.85508C102.818 4.58706 103.404 5.12385 104.526 5.36784L107.942 6.09982C110.48 6.6366 111.748 7.75897 111.748 9.71091C111.748 12.2484 109.552 13.7612 105.893 13.7612C101.891 13.8588 99.5976 12.1996 99.5 9.22292Z" fill="white"/>
<path d="M126.291 6.4902C126.291 2.87911 123.851 0 119.849 0C115.848 0 113.164 2.63512 113.164 6.88059C113.164 11.4677 115.848 13.8588 119.996 13.8588C122.924 13.8588 125.803 12.102 126.193 8.88133H123.412C123.07 10.3453 121.85 11.4189 120.045 11.4189C117.8 11.4189 116.238 10.0037 116.19 7.46617H126.34V6.4902H126.291ZM116.141 5.75823C116.287 3.51349 117.8 2.39113 119.752 2.39113C121.801 2.39113 123.119 3.65989 123.314 5.75823H116.141Z" fill="white"/>
<path d="M130.194 3.70869C131.219 3.70869 132.049 2.87911 132.049 1.85434C132.049 0.829575 131.219 0 130.194 0C129.17 0 128.34 0.878373 128.34 1.85434C128.291 2.87911 129.121 3.70869 130.194 3.70869Z" fill="white"/>
</g>
<defs>
<clipPath id="clip0_101_1127">
<rect width="132" height="73.7346" fill="white"/>
</clipPath>
</defs>
</svg>
