<svg width="208" height="62" viewBox="0 0 208 62" fill="none" xmlns="http://www.w3.org/2000/svg">
<path fill-rule="evenodd" clip-rule="evenodd" d="M200.2 61.3H7.79961C3.59961 61.3 0.0996094 57.9 0.0996094 53.6V7.6C0.0996094 3.4 3.59961 0 7.79961 0H200.1C204.3 0 207.8 3.4 207.8 7.7V53.7C207.8 57.9 204.4 61.3 200.2 61.3Z" fill="#414141"/>
<path d="M109.6 20.2999C108.3 20.2999 107 19.7999 106.1 18.8999C105.2 17.9999 104.7 16.6999 104.7 15.3999C104.7 14.0999 105.2 12.7999 106.1 11.8999C107 10.9999 108.3 10.3999 109.6 10.4999C110.9 10.4999 112.2 10.9999 113.1 11.8999C115 13.8999 115 16.9999 113.1 18.8999C112.1 19.7999 110.9 20.2999 109.6 20.2999ZM68.2998 20.2999C65.5998 20.3999 63.3998 18.1999 63.2998 15.5999C63.2998 15.4999 63.2998 15.3999 63.2998 15.3999C63.2998 12.6999 65.3998 10.4999 68.0998 10.3999C68.1998 10.3999 68.1998 10.3999 68.2998 10.3999C68.9998 10.3999 69.5998 10.4999 70.2998 10.7999C70.8998 10.9999 71.3998 11.3999 71.7998 11.8999L71.8998 11.9999L70.8998 12.9999L70.7998 12.8999C70.1998 12.1999 69.2998 11.7999 68.3998 11.8999C67.4998 11.8999 66.5998 12.1999 65.9998 12.8999C65.2998 13.5999 64.9998 14.4999 64.9998 15.3999C64.9998 16.3999 65.2998 17.2999 65.9998 17.8999C67.3998 19.1999 69.4998 19.1999 70.7998 17.8999C71.1998 17.4999 71.4998 16.8999 71.4998 16.2999H68.1998V14.8999H72.8998V14.9999C72.8998 15.1999 72.9998 15.4999 72.9998 15.6999C72.9998 16.8999 72.5998 17.9999 71.7998 18.8999C70.7998 19.7999 69.5998 20.2999 68.2998 20.2999ZM123.2 20.0999H121.7L117.2 12.8999V14.0999V19.9999H115.8V10.5999H117.5V10.6999L121.7 17.4999V16.2999V10.6999H123.2V20.0999ZM98.5998 20.0999H97.0998V11.9999H94.4998V10.5999H101.1V11.9999H98.4998L98.5998 20.0999ZM93.2998 20.0999H91.7998V10.5999H93.2998V20.0999ZM84.9998 20.0999H83.4998V11.9999H80.9998V10.5999H87.5998V11.9999H84.9998V20.0999ZM79.9998 20.0999H74.2998V10.5999H79.9998V11.9999H75.7998V14.5999H79.4998V15.9999H75.7998V18.5999H79.9998V20.0999ZM107.2 17.8999C107.8 18.4999 108.7 18.8999 109.6 18.8999C110.5 18.8999 111.4 18.5999 112 17.8999C112.7 17.1999 113 16.2999 113 15.3999C113 14.4999 112.7 13.5999 112 12.8999C111.4 12.2999 110.5 11.8999 109.6 11.8999C108.7 11.8999 107.8 12.1999 107.2 12.8999C106.5 13.5999 106.2 14.4999 106.2 15.3999C106.2 16.2999 106.5 17.1999 107.2 17.8999Z" fill="#DFDFDF"/>
<path fill-rule="evenodd" clip-rule="evenodd" d="M104.6 33.3C101 33.3 98.0998 36.2 98.0998 39.8C98.0998 43.4 101 46.3 104.6 46.3C108.2 46.3 111.1 43.4 111.1 39.8C111.2 36.3 108.3 33.3 104.8 33.3C104.7 33.3 104.6 33.3 104.6 33.3ZM104.6 43.8C102.4 43.9 100.5 42.3 100.4 40.1C100.3 37.9 101.9 36 104.1 35.9C106.3 35.8 108.2 37.4 108.3 39.6C108.3 39.7 108.3 39.8 108.3 39.8C108.4 41.9 106.9 43.6 104.8 43.7C104.7 43.8 104.6 43.8 104.6 43.8ZM90.2998 33.3C86.6998 33.3 83.7998 36.2 83.7998 39.8C83.7998 43.4 86.6998 46.3 90.2998 46.3C93.8998 46.3 96.7998 43.4 96.7998 39.8C96.8998 36.3 93.9998 33.3 90.4998 33.3C90.3998 33.3 90.3998 33.3 90.2998 33.3ZM90.2998 43.8C88.0998 43.9 86.1998 42.3 86.0998 40.1C85.9998 37.9 87.5998 36 89.7998 35.9C91.9998 35.8 93.8998 37.4 93.9998 39.6C93.9998 39.7 93.9998 39.8 93.9998 39.8C94.0998 41.9 92.5998 43.6 90.4998 43.7C90.3998 43.8 90.3998 43.8 90.2998 43.8ZM73.2998 35.3V38.1H79.8998C79.7998 39.4 79.2998 40.6 78.3998 41.6C77.0998 43 75.1998 43.7 73.2998 43.6C69.1998 43.4 66.0998 40 66.1998 35.9C66.3998 32.1 69.3998 29 73.2998 28.8C75.1998 28.8 76.8998 29.5 78.2998 30.8L80.2998 28.8C78.4998 27 75.9998 26 73.3998 26C67.7998 26 63.2998 30.5 63.2998 36.1C63.2998 41.7 67.7998 46.2 73.3998 46.2C78.3998 46.5 82.5998 42.7 82.8998 37.7C82.8998 37.4 82.8998 37.2 82.8998 36.9C82.8998 36.3 82.8998 35.7 82.6998 35.2L73.2998 35.3ZM142.7 37.5C141.9 35.1 139.7 33.4 137.1 33.3C133.7 33.3 130.9 36.1 131 39.6C131 39.7 131 39.8 131 39.8C130.9 43.3 133.7 46.2 137.2 46.3C137.3 46.3 137.4 46.3 137.5 46.3C139.7 46.3 141.7 45.3 142.9 43.5L140.7 42C140 43.1 138.8 43.8 137.5 43.8C136.1 43.9 134.9 43.1 134.3 41.8L143 38.2L142.7 37.5ZM133.9 39.7C133.8 37.7 135.3 36 137.3 35.9C138.3 35.8 139.3 36.4 139.7 37.3L133.9 39.7ZM126.8 46H129.7V26.8H126.8V46ZM122.1 34.8C121.1 33.8 119.9 33.3 118.6 33.3C115 33.3 112.1 36.2 112.1 39.8C112.1 43.4 115 46.3 118.6 46.3C119.9 46.3 121.2 45.8 122 44.8H122.1V45.7C122.1 48.2 120.8 49.5 118.6 49.5C117.1 49.5 115.8 48.6 115.3 47.2L112.8 48.2C113.8 50.5 116 52 118.6 52C122 52 124.8 50 124.8 45.2V33.7H122.1V34.8ZM118.8 43.8C116.7 43.7 115.1 42 115.2 40V39.9C115.1 37.8 116.6 36.1 118.7 35.9H118.8C120.9 36 122.4 37.8 122.3 39.9C122.5 41.9 121 43.6 119 43.8C118.9 43.8 118.8 43.8 118.8 43.8ZM156.2 26.8H149.4V46H152.3V38.7H156.3C159.6 38.9 162.4 36.3 162.5 33C162.7 29.7 160.1 26.9 156.8 26.8C156.5 26.8 156.4 26.8 156.2 26.8ZM156.2 36.1H152.1V29.5H156.2C158 29.4 159.6 30.8 159.7 32.6C159.8 34.4 158.4 36 156.6 36.1C156.5 36.1 156.4 36.1 156.2 36.1ZM173.9 33.3C171.8 33.2 169.8 34.3 168.8 36.2L171.3 37.3C171.8 36.4 172.8 35.8 173.9 35.9C175.4 35.8 176.8 36.9 176.9 38.4V38.6C176 38.1 175 37.9 173.9 37.9C171.2 37.9 168.4 39.4 168.4 42.2C168.5 44.6 170.6 46.5 173 46.4H173.1C174.6 46.5 176 45.8 176.7 44.5H176.8V46H179.6V38.7C179.7 35.2 177.2 33.3 173.9 33.3ZM173.6 43.8C172.7 43.8 171.3 43.3 171.3 42.2C171.3 40.7 172.9 40.2 174.3 40.2C175.2 40.2 176.1 40.4 176.9 40.8C176.7 42.5 175.3 43.8 173.6 43.8ZM189.8 33.7L186.5 42H186.4L183 33.7H179.9L185 45.3L182.1 51.8H185.1L193 33.7H189.8ZM164 46H166.8V26.8H164V46Z" fill="#DFDFDF"/>
<path d="M15.8962 47.762L15.9 47.7311V47.7V13.8C15.9 13.232 16.0117 12.6969 16.2529 12.26L34.6929 30.7L16.2418 49.1511C15.9644 48.7179 15.8341 48.2582 15.8962 47.762Z" fill="#DFDFDF" stroke="#494949"/>
<path d="M48.9511 29.0337L48.9511 29.0338L48.9604 29.0389C49.9711 29.5902 50.3498 30.2519 50.3498 30.8C50.3498 31.348 49.9711 32.0097 48.9604 32.561L48.9603 32.5609L48.9511 32.5662L41.7829 36.676L35.8069 30.7L41.6558 24.8511L48.9511 29.0337Z" fill="#DFDFDF" stroke="#494949"/>
<path d="M19.053 49.3651L19.0323 49.3769L19.0129 49.3905C18.3412 49.8607 17.5371 49.9383 16.8814 49.6254L35.1996 31.3072L40.8815 36.9891L19.053 49.3651Z" fill="#DFDFDF" stroke="#494949"/>
<path d="M18.9926 11.8946L19.0214 11.917L19.053 11.9349L40.8815 24.3109L35.1996 29.9928L16.8841 11.6773C17.5646 11.3596 18.4134 11.4441 18.9926 11.8946Z" fill="#DFDFDF" stroke="#484848"/>
<path opacity="0.2" fill-rule="evenodd" clip-rule="evenodd" d="M41.6002 37L19.4002 49.6C18.5002 50.3 17.2002 50.3 16.3002 49.6L16.2002 49.7L16.3002 49.8C17.2002 50.5 18.5002 50.5 19.4002 49.8L41.8002 37.1L41.6002 37Z" fill="#414141"/>
<path opacity="0.12" fill-rule="evenodd" clip-rule="evenodd" d="M49.1996 32.6L41.5996 36.9L41.6996 37L49.1996 32.7C50.0996 32.3 50.6996 31.5 50.7996 30.5C50.5996 31.5 49.9996 32.3 49.1996 32.6Z" fill="#414141"/>
<g opacity="0.25">
<mask id="path-10-inside-1_267_38" fill="white">
<path fill-rule="evenodd" clip-rule="evenodd" d="M19.3004 11.7L49.1004 28.7C49.9004 29.1 50.5004 29.8 50.7004 30.7C50.6004 29.7 50.0004 28.9 49.1004 28.5L19.3004 11.5C17.1004 10.3 15.4004 11.3 15.4004 13.8V14C15.4004 11.5 17.2004 10.5 19.3004 11.7Z"/>
</mask>
<path fill-rule="evenodd" clip-rule="evenodd" d="M19.3004 11.7L49.1004 28.7C49.9004 29.1 50.5004 29.8 50.7004 30.7C50.6004 29.7 50.0004 28.9 49.1004 28.5L19.3004 11.5C17.1004 10.3 15.4004 11.3 15.4004 13.8V14C15.4004 11.5 17.2004 10.5 19.3004 11.7Z" fill="#DFDFDF"/>
<path d="M19.3004 11.7L18.8043 12.5683L18.8049 12.5686L19.3004 11.7ZM49.1004 28.7L48.6049 29.5686L48.6287 29.5822L48.6532 29.5944L49.1004 28.7ZM50.7004 30.7L49.7242 30.917L51.6954 30.6005L50.7004 30.7ZM49.1004 28.5L48.6049 29.3686L48.6484 29.3935L48.6943 29.4138L49.1004 28.5ZM19.3004 11.5L19.7959 10.6314L19.7876 10.6267L19.7793 10.6221L19.3004 11.5ZM18.8049 12.5686L48.6049 29.5686L49.5959 27.8314L19.7959 10.8314L18.8049 12.5686ZM48.6532 29.5944C49.2119 29.8738 49.5961 30.3402 49.7242 30.917L51.6766 30.4831C51.4048 29.2598 50.5889 28.3262 49.5476 27.8056L48.6532 29.5944ZM51.6954 30.6005C51.5587 29.2329 50.7255 28.128 49.5065 27.5862L48.6943 29.4138C49.2753 29.6721 49.6421 30.1672 49.7054 30.7995L51.6954 30.6005ZM49.5959 27.6314L19.7959 10.6314L18.8049 12.3686L48.6049 29.3686L49.5959 27.6314ZM19.7793 10.6221C18.5058 9.92751 17.1335 9.74348 16.0177 10.401C14.9 11.0596 14.4004 12.3498 14.4004 13.8H16.4004C16.4004 12.7502 16.7508 12.2904 17.0331 12.1241C17.3173 11.9566 17.895 11.8725 18.8215 12.3779L19.7793 10.6221ZM14.4004 13.8V14H16.4004V13.8H14.4004ZM16.4004 14C16.4004 12.9726 16.7611 12.5033 17.0639 12.3279C17.3691 12.1512 17.9491 12.0796 18.8043 12.5683L19.7965 10.8318C18.5517 10.1204 17.1816 9.9488 16.0619 10.5971C14.9397 11.2468 14.4004 12.5275 14.4004 14H16.4004Z" fill="#494949" mask="url(#path-10-inside-1_267_38)"/>
</g>
</svg>
