<svg width="158" height="48" viewBox="0 0 158 48" fill="none" xmlns="http://www.w3.org/2000/svg">
<path d="M12.2019 20.1224C14.0524 8.09455 18.2158 3.77686 29.7811 3.77686V11.9496C16.9822 12.8749 12.2019 16.8841 11.8935 29.3746V45.566H2.17871V4.39367H11.5851L11.8935 20.1224H12.2019Z" fill="#DFDFDF"/>
<path d="M45.5097 4.39307H35.7949V45.5654H45.5097V4.39307Z" fill="#DFDFDF"/>
<path d="M52.1406 32.304H61.7013C62.0097 37.2385 65.7105 39.86 72.3413 39.86C77.7384 39.86 81.1309 37.8553 81.1309 34.4629C81.1309 31.9956 79.743 30.6078 75.4253 29.6825L65.0937 27.3695C57.5378 25.8275 53.0659 21.9724 53.0659 15.65C53.0659 7.93988 60.005 3.00537 71.1076 3.00537C83.1355 3.00537 90.2289 8.40249 90.2289 17.6547H80.8225C80.8225 12.8744 77.2758 10.0987 71.2619 10.0987C65.8647 10.0987 62.6265 12.1034 62.6265 15.3416C62.6265 17.6547 64.4769 19.3509 68.0236 20.1219L78.8178 22.435C86.8364 24.1312 90.8457 27.6779 90.8457 33.846C90.8457 41.8646 83.9065 46.6449 72.3413 46.6449C59.6966 46.9533 52.449 41.7104 52.1406 32.304Z" fill="#DFDFDF"/>
<path d="M136.798 23.6692C136.798 12.2582 129.088 3.16016 116.443 3.16016C103.799 3.16016 95.3174 11.4871 95.3174 24.9028C95.3174 39.3979 103.799 46.9539 116.906 46.9539C126.158 46.9539 135.256 41.4026 136.49 31.2252H127.7C126.621 35.8513 122.766 39.2437 117.06 39.2437C109.967 39.2437 105.032 34.7718 104.878 26.7533H136.952V23.6692H136.798ZM104.724 21.3561C105.186 14.2628 109.967 10.7161 116.135 10.7161C122.611 10.7161 126.775 14.7254 127.392 21.3561H104.724Z" fill="#DFDFDF"/>
<path d="M149.134 14.8791C152.372 14.8791 154.994 12.2577 154.994 9.01939C154.994 5.78112 152.372 3.15967 149.134 3.15967C145.895 3.15967 143.274 5.93533 143.274 9.01939C143.12 12.2577 145.741 14.8791 149.134 14.8791Z" fill="#DFDFDF"/>
</svg>
